# xmcd
#
# Track frame offsets: 
#        150
#        13195
#        27153
#        38976
#        48339
#        68775
#        85810
#        102850
#        121414
#        136944
#        149195
#        159346
#        172326
#        187203
#        211080
#        225333
#
# Disc length: 3194 seconds
#
# Revision: 0
# Processed by: cddbd v1.5.2PL0 Copyright (c) Steve Scherf et al.
# Submitted via: ExactAudioCopy v1.1
#
DISCID=e10c7810
DTITLE=Kysucká vrchárska heligónka - Za hory a doly
DYEAR=2014
DGENRE=Folklore
TTITLE0=Za hory a doly
TTITLE1=Pod horou ďatelinka
TTITLE2=Vstávaj ty, Andulka, hore
TTITLE3=Cez zelené žitečko
TTITLE4=Zdalo sa mi, zdalo
TTITLE5=Tmavá noc k zemi sa skláňa
TTITLE6=Keď som šiel okolo vás
TTITLE7=Dolina, dolina, dolinečka
TTITLE8=Keď som šla včera z kostola
TTITLE9=Keď som išiel z vojny domov
TTITLE10=V ochodnickom poli
TTITLE11=Dlhopoľské pole
TTITLE12=Mal som píšťalečku
TTITLE13=Tam pri Žiline
TTITLE14=Vínko, vínko
TTITLE15=Na petranskom vŕšku
EXTD=
EXTT0=
EXTT1=
EXTT2=
EXTT3=
EXTT4=
EXTT5=
EXTT6=
EXTT7=
EXTT8=
EXTT9=
EXTT10=
EXTT11=
EXTT12=
EXTT13=
EXTT14=
EXTT15=
PLAYORDER=
